<svg xmlns="http://www.w3.org/2000/svg" xmlns:xlink="http://www.w3.org/1999/xlink" contentStyleType="text/css" data-diagram-type="CLASS" height="637px" preserveAspectRatio="none" style="width:364px;height:637px;background:#FFFFFF;" version="1.1" viewBox="0 0 364 637" width="364px" zoomAndPan="magnify"><defs/><g><!--class Cliente--><g id="elem_Cliente"><rect codeLine="1" fill="#F1F1F1" height="178.375" id="Cliente" rx="2.5" ry="2.5" style="stroke:#181818;stroke-width:0.5;" width="122.9746" x="44.5" y="7"/><ellipse cx="78.324" cy="23" fill="#ADD1B2" rx="11" ry="11" style="stroke:#181818;stroke-width:1;"/><path d="M81.2927,28.6406 Q80.7146,28.9375 80.074,29.0781 Q79.4333,29.2344 78.7302,29.2344 Q76.2302,29.2344 74.9021,27.5938 Q73.5896,25.9375 73.5896,22.8125 Q73.5896,19.6875 74.9021,18.0313 Q76.2302,16.375 78.7302,16.375 Q79.4333,16.375 80.074,16.5313 Q80.7302,16.6875 81.2927,16.9844 L81.2927,19.7031 Q80.6677,19.125 80.074,18.8594 Q79.4802,18.5781 78.8552,18.5781 Q77.5115,18.5781 76.824,19.6563 Q76.1365,20.7188 76.1365,22.8125 Q76.1365,24.9063 76.824,25.9844 Q77.5115,27.0469 78.8552,27.0469 Q79.4802,27.0469 80.074,26.7813 Q80.6677,26.5 81.2927,25.9219 L81.2927,28.6406 Z " fill="#000000"/><text fill="#000000" font-family="sans-serif" font-size="14" lengthAdjust="spacing" textLength="49.1436" x="96.5071" y="27.8467">Cliente</text><line style="stroke:#181818;stroke-width:0.5;" x1="45.5" x2="166.4746" y1="39" y2="39"/><ellipse cx="55.5" cy="52.6484" fill="transparent" rx="3" ry="3" style="stroke:#038048;stroke-width:1;"/><text fill="#000000" font-family="sans-serif" font-size="14" lengthAdjust="spacing" textLength="84.8613" x="64.5" y="55.9951">int ClienteId</text><ellipse cx="55.5" cy="68.9453" fill="transparent" rx="3" ry="3" style="stroke:#038048;stroke-width:1;"/><text fill="#000000" font-family="sans-serif" font-size="14" lengthAdjust="spacing" textLength="85.9277" x="64.5" y="72.292">string Nome</text><ellipse cx="55.5" cy="85.2422" fill="transparent" rx="3" ry="3" style="stroke:#038048;stroke-width:1;"/><text fill="#000000" font-family="sans-serif" font-size="14" lengthAdjust="spacing" textLength="94.0146" x="64.5" y="88.5889">string Celular</text><ellipse cx="55.5" cy="101.5391" fill="transparent" rx="3" ry="3" style="stroke:#038048;stroke-width:1;"/><text fill="#000000" font-family="sans-serif" font-size="14" lengthAdjust="spacing" textLength="83.4805" x="64.5" y="104.8857">string Email</text><ellipse cx="55.5" cy="117.8359" fill="transparent" rx="3" ry="3" style="stroke:#038048;stroke-width:1;"/><text fill="#000000" font-family="sans-serif" font-size="14" lengthAdjust="spacing" textLength="71.7021" x="64.5" y="121.1826">string CEP</text><ellipse cx="55.5" cy="134.1328" fill="transparent" rx="3" ry="3" style="stroke:#038048;stroke-width:1;"/><text fill="#000000" font-family="sans-serif" font-size="14" lengthAdjust="spacing" textLength="78.6201" x="64.5" y="137.4795">int Numero</text><ellipse cx="55.5" cy="150.4297" fill="transparent" rx="3" ry="3" style="stroke:#038048;stroke-width:1;"/><text fill="#000000" font-family="sans-serif" font-size="14" lengthAdjust="spacing" textLength="70.1641" x="64.5" y="153.7764">bool Ativo</text><ellipse cx="55.5" cy="166.7266" fill="transparent" rx="3" ry="3" style="stroke:#038048;stroke-width:1;"/><text fill="#000000" font-family="sans-serif" font-size="14" lengthAdjust="spacing" textLength="96.9746" x="64.5" y="170.0732">* Orcamentos</text><line style="stroke:#181818;stroke-width:0.5;" x1="45.5" x2="166.4746" y1="177.375" y2="177.375"/></g><!--class Orcamento--><g id="elem_Orcamento"><rect codeLine="12" fill="#F1F1F1" height="162.0781" id="Orcamento" rx="2.5" ry="2.5" style="stroke:#181818;stroke-width:0.5;" width="197.9033" x="7" y="262"/><ellipse cx="62.5864" cy="278" fill="#ADD1B2" rx="11" ry="11" style="stroke:#181818;stroke-width:1;"/><path d="M65.5552,283.6406 Q64.9771,283.9375 64.3364,284.0781 Q63.6958,284.2344 62.9927,284.2344 Q60.4927,284.2344 59.1646,282.5938 Q57.8521,280.9375 57.8521,277.8125 Q57.8521,274.6875 59.1646,273.0313 Q60.4927,271.375 62.9927,271.375 Q63.6958,271.375 64.3364,271.5313 Q64.9927,271.6875 65.5552,271.9844 L65.5552,274.7031 Q64.9302,274.125 64.3364,273.8594 Q63.7427,273.5781 63.1177,273.5781 Q61.7739,273.5781 61.0864,274.6563 Q60.3989,275.7188 60.3989,277.8125 Q60.3989,279.9063 61.0864,280.9844 Q61.7739,282.0469 63.1177,282.0469 Q63.7427,282.0469 64.3364,281.7813 Q64.9302,281.5 65.5552,280.9219 L65.5552,283.6406 Z " fill="#000000"/><text fill="#000000" font-family="sans-serif" font-size="14" lengthAdjust="spacing" textLength="78.2305" x="83.0864" y="282.8467">Orcamento</text><line style="stroke:#181818;stroke-width:0.5;" x1="8" x2="203.9033" y1="294" y2="294"/><ellipse cx="18" cy="307.6484" fill="transparent" rx="3" ry="3" style="stroke:#038048;stroke-width:1;"/><text fill="#000000" font-family="sans-serif" font-size="14" lengthAdjust="spacing" textLength="113.9482" x="27" y="310.9951">int OrcamentoId</text><ellipse cx="18" cy="323.9453" fill="transparent" rx="3" ry="3" style="stroke:#038048;stroke-width:1;"/><text fill="#000000" font-family="sans-serif" font-size="14" lengthAdjust="spacing" textLength="158.874" x="27" y="327.292">DateTime DataCriacao</text><ellipse cx="18" cy="340.2422" fill="transparent" rx="3" ry="3" style="stroke:#038048;stroke-width:1;"/><text fill="#000000" font-family="sans-serif" font-size="14" lengthAdjust="spacing" textLength="131.0859" x="27" y="343.5889">decimal ValorTotal</text><ellipse cx="18" cy="356.5391" fill="transparent" rx="3" ry="3" style="stroke:#038048;stroke-width:1;"/><text fill="#000000" font-family="sans-serif" font-size="14" lengthAdjust="spacing" textLength="84.8613" x="27" y="359.8857">int ClienteId</text><ellipse cx="18" cy="372.8359" fill="transparent" rx="3" ry="3" style="stroke:#038048;stroke-width:1;"/><text fill="#000000" font-family="sans-serif" font-size="14" lengthAdjust="spacing" textLength="102.7373" x="27" y="376.1826">Cliente Cliente</text><ellipse cx="18" cy="389.1328" fill="transparent" rx="3" ry="3" style="stroke:#038048;stroke-width:1;"/><text fill="#000000" font-family="sans-serif" font-size="14" lengthAdjust="spacing" textLength="70.4375" x="27" y="392.4795">* Servicos</text><ellipse cx="18" cy="405.4297" fill="transparent" rx="3" ry="3" style="stroke:#038048;stroke-width:1;"/><text fill="#000000" font-family="sans-serif" font-size="14" lengthAdjust="spacing" textLength="171.9033" x="27" y="408.7764">OrcamentoStatus Status</text><line style="stroke:#181818;stroke-width:0.5;" x1="8" x2="203.9033" y1="416.0781" y2="416.0781"/></g><!--class Servico--><g id="elem_Servico"><rect codeLine="22" fill="#F1F1F1" height="129.4844" id="Servico" rx="2.5" ry="2.5" style="stroke:#181818;stroke-width:0.5;" width="186.9111" x="12.5" y="501"/><ellipse cx="75.8589" cy="517" fill="#ADD1B2" rx="11" ry="11" style="stroke:#181818;stroke-width:1;"/><path d="M78.8276,522.6406 Q78.2495,522.9375 77.6089,523.0781 Q76.9683,523.2344 76.2651,523.2344 Q73.7651,523.2344 72.437,521.5938 Q71.1245,519.9375 71.1245,516.8125 Q71.1245,513.6875 72.437,512.0313 Q73.7651,510.375 76.2651,510.375 Q76.9683,510.375 77.6089,510.5313 Q78.2651,510.6875 78.8276,510.9844 L78.8276,513.7031 Q78.2026,513.125 77.6089,512.8594 Q77.0151,512.5781 76.3901,512.5781 Q75.0464,512.5781 74.3589,513.6563 Q73.6714,514.7188 73.6714,516.8125 Q73.6714,518.9063 74.3589,519.9844 Q75.0464,521.0469 76.3901,521.0469 Q77.0151,521.0469 77.6089,520.7813 Q78.2026,520.5 78.8276,519.9219 L78.8276,522.6406 Z " fill="#000000"/><text fill="#000000" font-family="sans-serif" font-size="14" lengthAdjust="spacing" textLength="51.6934" x="96.3589" y="521.8467">Servico</text><line style="stroke:#181818;stroke-width:0.5;" x1="13.5" x2="198.4111" y1="533" y2="533"/><ellipse cx="23.5" cy="546.6484" fill="transparent" rx="3" ry="3" style="stroke:#038048;stroke-width:1;"/><text fill="#000000" font-family="sans-serif" font-size="14" lengthAdjust="spacing" textLength="87.4111" x="32.5" y="549.9951">int ServicoId</text><ellipse cx="23.5" cy="562.9453" fill="transparent" rx="3" ry="3" style="stroke:#038048;stroke-width:1;"/><text fill="#000000" font-family="sans-serif" font-size="14" lengthAdjust="spacing" textLength="113.5107" x="32.5" y="566.292">string Descricao</text><ellipse cx="23.5" cy="579.2422" fill="transparent" rx="3" ry="3" style="stroke:#038048;stroke-width:1;"/><text fill="#000000" font-family="sans-serif" font-size="14" lengthAdjust="spacing" textLength="96.0107" x="32.5" y="582.5889">decimal Valor</text><ellipse cx="23.5" cy="595.5391" fill="transparent" rx="3" ry="3" style="stroke:#038048;stroke-width:1;"/><text fill="#000000" font-family="sans-serif" font-size="14" lengthAdjust="spacing" textLength="113.9482" x="32.5" y="598.8857">int OrcamentoId</text><ellipse cx="23.5" cy="611.8359" fill="transparent" rx="3" ry="3" style="stroke:#038048;stroke-width:1;"/><text fill="#000000" font-family="sans-serif" font-size="14" lengthAdjust="spacing" textLength="160.9111" x="32.5" y="615.1826">Orcamento Orcamento</text><line style="stroke:#181818;stroke-width:0.5;" x1="13.5" x2="198.4111" y1="622.4844" y2="622.4844"/></g><!--class OrcamentoStatus--><g id="elem_OrcamentoStatus"><rect codeLine="30" fill="#F1F1F1" height="113.1875" id="OrcamentoStatus" rx="2.5" ry="2.5" style="stroke:#181818;stroke-width:0.5;" width="154.8418" x="202.5" y="39.5"/><ellipse cx="217.5" cy="55.5" fill="#EB937F" rx="11" ry="11" style="stroke:#181818;stroke-width:1;"/><path d="M221.6094,61.5 L213.8906,61.5 L213.8906,49.1094 L221.6094,49.1094 L221.6094,51.2656 L216.3438,51.2656 L216.3438,53.9375 L221.1094,53.9375 L221.1094,56.0938 L216.3438,56.0938 L216.3438,59.3438 L221.6094,59.3438 L221.6094,61.5 Z " fill="#000000"/><text fill="#000000" font-family="sans-serif" font-size="14" lengthAdjust="spacing" textLength="122.8418" x="231.5" y="60.3467">OrcamentoStatus</text><line style="stroke:#181818;stroke-width:0.5;" x1="203.5" x2="356.3418" y1="71.5" y2="71.5"/><text fill="#000000" font-family="sans-serif" font-size="14" lengthAdjust="spacing" textLength="66.4043" x="208.5" y="88.4951">Pendente</text><text fill="#000000" font-family="sans-serif" font-size="14" lengthAdjust="spacing" textLength="67.1016" x="208.5" y="104.792">Aprovado</text><text fill="#000000" font-family="sans-serif" font-size="14" lengthAdjust="spacing" textLength="69.0156" x="208.5" y="121.0889">Concluido</text><text fill="#000000" font-family="sans-serif" font-size="14" lengthAdjust="spacing" textLength="73.459" x="208.5" y="137.3857">Cancelado</text><line style="stroke:#181818;stroke-width:0.5;" x1="203.5" x2="356.3418" y1="144.6875" y2="144.6875"/></g><!--link Cliente to Orcamento--><g id="link_Cliente_Orcamento"><path codeLine="37" d="M106,185.1 C106,210.07 106,231.11 106,255.6 " fill="transparent" id="Cliente-to-Orcamento" style="stroke:#181818;stroke-width:1;"/><polygon fill="#181818" points="106,261.6,110,252.6,106,256.6,102,252.6,106,261.6" style="stroke:#181818;stroke-width:1;"/><polygon fill="#000000" points="111,228.5664,113.9389,219.5213,108.0611,219.5213,111,228.5664" style="stroke:#000000;stroke-width:1;"/><text fill="#000000" font-family="sans-serif" font-size="13" lengthAdjust="spacing" textLength="41.6025" x="120" y="228.0669">possui</text><text fill="#000000" font-family="sans-serif" font-size="13" lengthAdjust="spacing" textLength="8.271" x="97.669" y="205.4581">1</text><text fill="#000000" font-family="sans-serif" font-size="13" lengthAdjust="spacing" textLength="23.0356" x="82.0174" y="251.0294">0..*</text></g><!--link Orcamento to Servico--><g id="link_Orcamento_Servico"><path codeLine="38" d="M106,424.23 C106,449.47 106,470.99 106,494.91 " fill="transparent" id="Orcamento-to-Servico" style="stroke:#181818;stroke-width:1;"/><polygon fill="#181818" points="106,500.91,110,491.91,106,495.91,102,491.91,106,500.91" style="stroke:#181818;stroke-width:1;"/><polygon fill="#000000" points="111,467.5664,113.9389,458.5213,108.0611,458.5213,111,467.5664" style="stroke:#000000;stroke-width:1;"/><text fill="#000000" font-family="sans-serif" font-size="13" lengthAdjust="spacing" textLength="34.4614" x="120" y="467.0669">inclui</text><text fill="#000000" font-family="sans-serif" font-size="13" lengthAdjust="spacing" textLength="8.271" x="97.6601" y="444.2018">1</text><text fill="#000000" font-family="sans-serif" font-size="13" lengthAdjust="spacing" textLength="23.0356" x="81.749" y="490.0728">1..*</text></g><!--SRC=[TP2xQWD134Nx_GgnfODDtBfOC6iNRXo3JNfbLWI1PiRCOnlZVy_ClXESIj95w9uh9UWzrC9a0i6Z07XZ4qRXr6J11yVc6yvMqsAiIQAWMoX7ZIpBZUDbl7UEcfpDqvUr0ll0RJUjuCCfrCdB-k9P5Ah3cRGPQ99wf0C6kh4cI0tMZb5XTwyXnHe5Fb6ikzc0yZBHc7UeFScLNCigSQHfihi63D53NsR2ONVc6uHV3pkGLuvVaVsJQiuzTTcIJDJmboWxNyWq0__-xcoBJRQghL4IkU_HA9AifpjZwd9RmdfTGVc-sQpAnRTtSBVUHuQgcCLfUzjjZybtm9qDL3y0]--></g></svg>