<svg xmlns="http://www.w3.org/2000/svg" xmlns:xlink="http://www.w3.org/1999/xlink" contentStyleType="text/css" data-diagram-type="DESCRIPTION" height="577px" preserveAspectRatio="none" style="width:399px;height:577px;background:#FFFFFF;" version="1.1" viewBox="0 0 399 577" width="399px" zoomAndPan="magnify"><defs/><g><!--cluster Sistema de Or?amentos--><g id="cluster_Sistema de Or&#231;amentos"><rect fill="transparent" height="564" rx="2.5" ry="2.5" style="stroke:#181818;stroke-width:1;" width="290" x="103" y="7"/><text fill="#000000" font-family="sans-serif" font-size="14" font-weight="bold" lengthAdjust="spacing" textLength="187.9473" x="154.0264" y="21.9951">Sistema de Or&#231;amentos</text></g><g id="elem_Cadastrar Cliente"><ellipse cx="248.0664" cy="61.2133" fill="#F1F1F1" rx="81.5664" ry="18.7133" style="stroke:#181818;stroke-width:0.5;"/><text fill="#000000" font-family="sans-serif" font-size="14" lengthAdjust="spacing" textLength="122.2881" x="185.8309" y="64.4197">Cadastrar Cliente</text></g><g id="elem_Atualizar Cliente"><ellipse cx="247.7924" cy="133.1585" fill="#F1F1F1" rx="78.7924" ry="18.1585" style="stroke:#181818;stroke-width:0.5;"/><text fill="#000000" font-family="sans-serif" font-size="14" lengthAdjust="spacing" textLength="115.5752" x="187.8714" y="136.6732">Atualizar Cliente</text></g><g id="elem_Criar Or&#231;amento"><ellipse cx="248.1432" cy="204.2286" fill="#F1F1F1" rx="79.1432" ry="18.2286" style="stroke:#181818;stroke-width:0.5;"/><text fill="#000000" font-family="sans-serif" font-size="14" lengthAdjust="spacing" textLength="116.4365" x="187.9295" y="207.7044">Criar Or&#231;amento</text></g><g id="elem_Adicionar Servi&#231;o ao Or&#231;amento"><ellipse cx="247.8441" cy="285.1688" fill="#F1F1F1" rx="128.8441" ry="28.1688" style="stroke:#181818;stroke-width:0.5;"/><text fill="#000000" font-family="sans-serif" font-size="14" lengthAdjust="spacing" textLength="226.1328" x="134.7777" y="288.0155">Adicionar Servi&#231;o ao Or&#231;amento</text></g><g id="elem_Atualizar Servi&#231;o do Or&#231;amento"><ellipse cx="248.2252" cy="375.845" fill="#F1F1F1" rx="127.2252" ry="27.845" style="stroke:#181818;stroke-width:0.5;"/><text fill="#000000" font-family="sans-serif" font-size="14" lengthAdjust="spacing" textLength="222.708" x="136.8711" y="378.6917">Atualizar Servi&#231;o do Or&#231;amento</text></g><g id="elem_Listar Or&#231;amentos"><ellipse cx="247.8322" cy="458.7664" fill="#F1F1F1" rx="84.3322" ry="19.2664" style="stroke:#181818;stroke-width:0.5;"/><text fill="#000000" font-family="sans-serif" font-size="14" lengthAdjust="spacing" textLength="128.7822" x="183.2894" y="461.6655">Listar Or&#231;amentos</text></g><g id="elem_Atualizar Or&#231;amento"><ellipse cx="247.7931" cy="534.1586" fill="#F1F1F1" rx="91.2931" ry="20.6586" style="stroke:#181818;stroke-width:0.5;"/><text fill="#000000" font-family="sans-serif" font-size="14" lengthAdjust="spacing" textLength="144.6621" x="175.4621" y="537.0053">Atualizar Or&#231;amento</text></g><!--entity Usuario--><g id="elem_Usuario"><ellipse cx="32.6021" cy="255.5" fill="#F1F1F1" rx="8" ry="8" style="stroke:#181818;stroke-width:0.5;"/><path d="M32.6021,263.5 L32.6021,290.5 M19.6021,271.5 L45.6021,271.5 M32.6021,290.5 L19.6021,305.5 M32.6021,290.5 L45.6021,305.5 " fill="transparent" style="stroke:#181818;stroke-width:0.5;"/><text fill="#000000" font-family="sans-serif" font-size="14" lengthAdjust="spacing" textLength="53.2041" x="6" y="319.9951">Usuario</text></g><!--link Usuario to Cadastrar Cliente--><g id="link_Usuario_Cadastrar Cliente"><path d="M35.33,246.71 C39.48,204 52.79,135.82 95,97 C114.76,78.83 136.0706,70.4139 162.0106,65.6039 " fill="transparent" id="Usuario-to-Cadastrar Cliente" style="stroke:#181818;stroke-width:1;"/><polygon fill="#181818" points="167.91,64.51,158.3316,62.2179,162.9938,65.4216,159.7901,70.0838,167.91,64.51" style="stroke:#181818;stroke-width:1;"/></g><!--link Usuario to Atualizar Cliente--><g id="link_Usuario_Atualizar Cliente"><path d="M44.26,246.78 C53.55,220.76 69.55,187.61 95,168 C116.77,151.22 139.2644,143.3101 165.6144,138.5801 " fill="transparent" id="Usuario-to-Atualizar Cliente" style="stroke:#181818;stroke-width:1;"/><polygon fill="#181818" points="171.52,137.52,161.9549,135.1731,166.5987,138.4034,163.3683,143.0472,171.52,137.52" style="stroke:#181818;stroke-width:1;"/></g><!--link Usuario to Criar Or?amento--><g id="link_Usuario_Criar Or&#231;amento"><path d="M59.19,262.02 C69.67,253.69 82.3,244.89 95,239 C121.53,226.7 146.8412,219.6896 174.0412,214.3796 " fill="transparent" id="Usuario-to-Criar Or&#231;amento" style="stroke:#181818;stroke-width:1;"/><polygon fill="#181818" points="179.93,213.23,170.3303,211.0285,175.0226,214.188,171.8632,218.8803,179.93,213.23" style="stroke:#181818;stroke-width:1;"/></g><!--link Usuario to Adicionar Servi?o ao Or?amento--><g id="link_Usuario_Adicionar Servi&#231;o ao Or&#231;amento"><path d="M59.25,285 C74.89,285 90.15,285 112.76,285 " fill="transparent" id="Usuario-to-Adicionar Servi&#231;o ao Or&#231;amento" style="stroke:#181818;stroke-width:1;"/><polygon fill="#181818" points="118.76,285,109.76,281,113.76,285,109.76,289,118.76,285" style="stroke:#181818;stroke-width:1;"/></g><!--link Usuario to Atualizar Servi?o do Or?amento--><g id="link_Usuario_Atualizar Servi&#231;o do Or&#231;amento"><path d="M59.17,306.8 C69.75,314.95 82.45,323.74 95,330 C115.6,340.28 133.1919,346.9866 155.2819,353.7366 " fill="transparent" id="Usuario-to-Atualizar Servi&#231;o do Or&#231;amento" style="stroke:#181818;stroke-width:1;"/><polygon fill="#181818" points="161.02,355.49,153.5818,349.0345,156.2383,354.0289,151.2439,356.6853,161.02,355.49" style="stroke:#181818;stroke-width:1;"/></g><!--link Usuario to Listar Or?amentos--><g id="link_Usuario_Listar Or&#231;amentos"><path d="M41.13,323.14 C49.28,353.96 65.26,396.18 95,421 C115.36,437.99 136.3865,446.3346 161.8865,451.6546 " fill="transparent" id="Usuario-to-Listar Or&#231;amentos" style="stroke:#181818;stroke-width:1;"/><polygon fill="#181818" points="167.76,452.88,159.7666,447.1262,162.8654,451.8588,158.1328,454.9576,167.76,452.88" style="stroke:#181818;stroke-width:1;"/></g><!--link Usuario to Atualizar Or?amento--><g id="link_Usuario_Atualizar Or&#231;amento"><path d="M33.72,323.14 C36.13,370.43 47.57,450.37 95,496 C112.54,512.88 130.557,521.2364 154.167,526.7464 " fill="transparent" id="Usuario-to-Atualizar Or&#231;amento" style="stroke:#181818;stroke-width:1;"/><polygon fill="#181818" points="160.01,528.11,152.1546,522.1693,155.1408,526.9737,150.3364,529.9599,160.01,528.11" style="stroke:#181818;stroke-width:1;"/></g><!--SRC=[XOzB3e9038RtSug6bIwuWebXQ-A2U826gTW4cAHJN6Wy3mVXOWxH8CCZRlzN-rLqLL07mkLDmR9GeUmQWuKwWOjlKTWPCyZOb1L1ahDNgX4imLdw3cjgrFa4dWPWbw55hu82MSN1eFsW7hN5YXypDHCEoc_Z4xLSXFl1o4dkt7SEq2r2uzuOielGAVmPxVjPTvf_6VDbXJGzh794_WfHt5-mnVM_b1lNjdYZ-1hvnjvaumq0]--></g></svg>